<?xml version="1.0" standalone="no"?><!DOCTYPE svg PUBLIC "-//W3C//DTD SVG 1.1//EN" "http://www.w3.org/Graphics/SVG/1.1/DTD/svg11.dtd"><svg t="1624550066261" class="icon" viewBox="0 0 6144 1024" version="1.1" xmlns="http://www.w3.org/2000/svg" p-id="4460" xmlns:xlink="http://www.w3.org/1999/xlink" width="1200" height="200"><defs><style type="text/css"></style></defs><path d="M1007.087 453.671L818.49000001 617.287c-11.875 11.718-17.293 28.601-14.48800001 45.147l44.532 262.811c3.483 20.825 0.005 35.75-16.86199999 48.189a54.438 54.438 0 0 1-32.25400001 10.607c-8.72 0-17.47-2.11-25.506-6.386l-238.13-129.93000001a49.84 49.84 0 0 0-46.887 0L260.75999999 977.656c-18.486 9.857-40.865 8.19-57.78799999-4.22-16.867-12.44-30.34000001-27.338-26.8-48.19l54.551-268.266c2.803-16.546-2.615-33.43-14.489-45.147L17.617 453.67c-15.002-14.744-20.35-36.818-13.932-56.92 6.472-20.103 23.614-34.736 44.293-37.79l258.347-45.9c16.405-2.415 30.585-12.845 37.924-27.892L463.19 31.063C472.40499999 12.1 491.466 0.10300001 512.365 0.10300001s39.906 11.995 49.176 30.95999999l114.275 254.1c7.338 15.052 21.52 25.485 37.929 27.9l263.007 45.89799999c20.625 3.027 37.82100001 17.688 44.23999999 37.79000001 6.446 20.102 1.015 42.176-13.90499999 56.92zM2286.073 453.568l-188.597 163.616c-11.875 11.718-17.294 28.60099999-14.49 45.147l44.533 262.81c3.484 20.826 0.006 35.75-16.862 48.19a54.438 54.438 0 0 1-32.253 10.607c-8.721 0-17.471-2.11-25.507-6.38600001l-238.13-129.92999999a49.84 49.84 0 0 0-46.887 0l-228.134 129.93c-18.486 9.857-40.866 8.192-57.788-4.22-16.868-12.43900001-30.34-27.337-26.802-48.189l54.553-268.266c2.803-16.546-2.615-33.43-14.49-45.148l-198.617-158.161c-15.002-14.744-20.35-36.818-13.932-56.92 6.472-20.104 23.615-34.736 44.294-37.791l258.346-45.9c16.40500001-2.414 30.585-12.844 37.925-27.891l118.94-254.106C1751.39 11.99599999 1770.451 0 1791.35 0c20.9 0 39.906 11.995 49.176 30.96l114.275 254.1c7.339 15.052 21.521 25.485 37.93 27.9l263.006 45.898c20.626 3.026 37.822 17.688 44.24 37.79 6.446 20.102 1.015 42.176-13.904 56.92zM3566.073 453.568l-188.597 163.616c-11.875 11.718-17.294 28.60099999-14.49 45.147l44.533 262.81c3.484 20.826 0.006 35.75-16.862 48.19a54.438 54.438 0 0 1-32.253 10.607c-8.721 0-17.471-2.11-25.50700001-6.386l-238.12999999-129.93a49.84 49.84 0 0 0-46.887 0l-228.134 129.93c-18.486 9.857-40.866 8.192-57.788-4.22-16.868-12.43900001-30.34-27.337-26.80199999-48.189l54.55299999-268.266c2.803-16.546-2.615-33.43-14.49-45.148l-198.617-158.161c-15.002-14.744-20.35-36.818-13.932-56.92 6.472-20.104 23.615-34.736 44.294-37.791l258.346-45.9c16.40500001-2.414 30.585-12.844 37.925-27.891l118.94-254.106C3031.38999999 11.996 3050.451 0 3071.35 0c20.9 0 39.906 11.995 49.176 30.96l114.275 254.1c7.339 15.052 21.521 25.485 37.93 27.9l263.006 45.898c20.626 3.026 37.822 17.688 44.24 37.79 6.446 20.102 1.015 42.176-13.904 56.92zM4846.073 453.568l-188.597 163.616c-11.875 11.718-17.294 28.60099999-14.49 45.147l44.533 262.81c3.484 20.826 0.006 35.75-16.862 48.19a54.438 54.438 0 0 1-32.253 10.60699999c-8.721 0-17.471-2.11-25.507-6.38599999l-238.13-129.93a49.84 49.84 0 0 0-46.887 0l-228.134 129.93c-18.486 9.857-40.866 8.192-57.788-4.22-16.868-12.43900001-30.34-27.337-26.80200001-48.189l54.55300001-268.266c2.803-16.546-2.615-33.43-14.49-45.148l-198.617-158.161c-15.002-14.744-20.35-36.818-13.932-56.92 6.472-20.104 23.615-34.736 44.294-37.791l258.346-45.9c16.40500001-2.414 30.585-12.844 37.925-27.891l118.94-254.106C4311.39 11.996 4330.451 0 4351.35 0c20.9 0 39.906 11.995 49.176 30.96l114.275 254.1c7.339 15.052 21.521 25.485 37.93 27.9l263.006 45.898c20.626 3.026 37.822 17.688 44.24 37.79 6.446 20.102 1.015 42.176-13.904 56.92zM6126.073 453.568l-188.597 163.616c-11.875 11.718-17.294 28.60099999-14.49 45.147l44.533 262.81c3.484 20.826 0.006 35.75-16.862 48.19a54.438 54.438 0 0 1-32.25300001 10.607c-8.721 0-17.471-2.11-25.50699999-6.386l-238.13-129.93a49.84 49.84 0 0 0-46.887 0l-228.134 129.93c-18.486 9.857-40.866 8.192-57.788-4.22-16.868-12.43900001-30.34-27.337-26.802-48.189l54.553-268.266c2.803-16.546-2.615-33.43-14.49-45.148l-198.617-158.161c-15.002-14.744-20.35-36.818-13.932-56.92 6.472-20.104 23.615-34.736 44.294-37.791l258.346-45.9c16.40500001-2.414 30.585-12.844 37.925-27.891l118.94-254.106C5591.39 11.996 5610.451 0 5631.35 0c20.9 0 39.906 11.995 49.176 30.96l114.275 254.1c7.339 15.052 21.521 25.485 37.93 27.9l263.006 45.898c20.626 3.026 37.822 17.688 44.24 37.79 6.446 20.102 1.015 42.176-13.904 56.92z" fill="#fe6770" p-id="4461"></path></svg>